<mxfile host="app.diagrams.net" modified="2023-12-25T00:00:00Z">
  <diagram name="日記" id="1234567890">
    <mxGraphModel dx="620" dy="320" grid="1" gridSize="10" guides="1" tooltips="1" connect="1" arrows="1" fold="1" page="1" pageScale="1" pageWidth="827" pageHeight="1169" math="0" shadow="0">
      <root>
        <mxCell id="0" />
        <mxCell id="1" parent="0" />
        <mxCell id="2" value="開始" style="ellipse;whiteSpace=wrap;html=1;" vertex="1" connectable="0" parent="1">
          <mxGeometry x="50" y="70" width="80" height="30" as="geometry" />
        </mxCell>
        <mxCell id="3" value="選擇日期" style="rhombus;whiteSpace=wrap;html=1;" vertex="1" connectable="0" parent="1">
          <mxGeometry x="180" y="70" width="80" height="30" as="geometry" />
        </mxCell>
        <mxCell id="4" value="寫入內容" style="rounded=0;whiteSpace=wrap;html=1;" vertex="1" connectable="0" parent="1">
          <mxGeometry x="310" y="70" width="80" height="30" as="geometry" />
        </mxCell>
        <mxCell id="5" value="加入圖片" style="rhombus;whiteSpace=wrap;html=1;" vertex="1" connectable="0" parent="1">
          <mxGeometry x="440" y="70" width="80" height="30" as="geometry" />
        </mxCell>
        <mxCell id="6" value="保存" style="ellipse;whiteSpace=wrap;html=1;" vertex="1" connectable="0" parent="1">
          <mxGeometry x="570" y="70" width="80" height="30" as="geometry" />
        </mxCell>
        <mxCell id="7" value="結束" style="ellipse;whiteSpace=wrap;html=1;" vertex="1" connectable="0" parent="1">
          <mxGeometry x="700" y="70" width="80" height="30" as="geometry" />
        </mxCell>
        <mxCell id="8" value="" style="edgeStyle=orthogonalEdgeStyle;rounded=0;orthogonalLoop=1;jettySize=auto;html=1;" edge="1" connectable="0" parent="1" source="2" target="3">
          <mxGeometry relative="1" as="geometry" />
        </mxCell>
        <mxCell id="9" value="" style="edgeStyle=orthogonalEdgeStyle;rounded=0;orthogonalLoop=1;jettySize=auto;html=1;" edge="1" connectable="0" parent="1" source="3" target="4">
          <mxGeometry relative="1" as="geometry" />
        </mxCell>
        <mxCell id="10" value="" style="edgeStyle=orthogonalEdgeStyle;rounded=0;orthogonalLoop=1;jettySize=auto;html=1;" edge="1" connectable="0" parent="1" source="4" target="5">
          <mxGeometry relative="1" as="geometry" />
        </mxCell>
        <mxCell id="11" value="" style="edgeStyle=orthogonalEdgeStyle;rounded=0;orthogonalLoop=1;jettySize=auto;html=1;" edge="1" connectable="0" parent="1" source="5" target="6">
          <mxGeometry relative="1" as="geometry" />
        </mxCell>
        <mxCell id="12" value="" style="edgeStyle=orthogonalEdgeStyle;rounded=0;orthogonalLoop=1;jettySize=auto;html=1;" edge="1" connectable="0" parent="1" source="6" target="7">
          <mxGeometry relative="1" as="geometry" />
        </mxCell>
      </root>
    </mxGraphModel>
  </diagram>
</mxfile>
